<mxfile host="app.diagrams.net" modified="2024-04-15T18:16:59.446Z" agent="Mozilla/5.0 (Windows NT 10.0; Win64; x64) AppleWebKit/537.36 (KHTML, like Gecko) Chrome/123.0.0.0 Safari/537.36" etag="yDVlY4-PhBaATtCpSLO_" version="24.2.5" type="github">
  <diagram name="PÃ¡gina-1" id="6qPDoaARSN0rU8H7et-a">
    <mxGraphModel dx="1870" dy="950" grid="1" gridSize="10" guides="1" tooltips="1" connect="1" arrows="1" fold="1" page="1" pageScale="1" pageWidth="827" pageHeight="1169" background="none" math="0" shadow="0">
      <root>
        <mxCell id="0" />
        <mxCell id="1" parent="0" />
        <mxCell id="ljXTEB833THAAeLaWiwh-1" value="Usuario" style="swimlane;fontStyle=1;align=center;verticalAlign=top;childLayout=stackLayout;horizontal=1;startSize=26;horizontalStack=0;resizeParent=1;resizeParentMax=0;resizeLast=0;collapsible=1;marginBottom=0;whiteSpace=wrap;html=1;" vertex="1" parent="1">
          <mxGeometry x="360" y="20" width="190" height="310" as="geometry" />
        </mxCell>
        <mxCell id="ljXTEB833THAAeLaWiwh-2" value="+ NickName: string&amp;nbsp;&lt;div&gt;+ Nombre: string&amp;nbsp;&lt;/div&gt;&lt;div&gt;+ Apel1 : string&lt;/div&gt;&lt;div&gt;+ Apel2: string&amp;nbsp;&lt;/div&gt;&lt;div&gt;+ Password: string&amp;nbsp;&lt;/div&gt;&lt;div&gt;+ EsAdmin: bool&lt;/div&gt;&lt;div&gt;# Maquina: MaquinaExpendedora&lt;/div&gt;&lt;div&gt;# Listaproductos: List&amp;lt;Producto&amp;gt;&lt;/div&gt;&lt;div&gt;# InterfazUsuario: InterfazUsuario&lt;/div&gt;&lt;div&gt;+ ClaveAdmin: string&lt;/div&gt;" style="text;strokeColor=none;fillColor=none;align=left;verticalAlign=top;spacingLeft=4;spacingRight=4;overflow=hidden;rotatable=0;points=[[0,0.5],[1,0.5]];portConstraint=eastwest;whiteSpace=wrap;html=1;" vertex="1" parent="ljXTEB833THAAeLaWiwh-1">
          <mxGeometry y="26" width="190" height="164" as="geometry" />
        </mxCell>
        <mxCell id="ljXTEB833THAAeLaWiwh-3" value="" style="line;strokeWidth=1;fillColor=none;align=left;verticalAlign=middle;spacingTop=-1;spacingLeft=3;spacingRight=3;rotatable=0;labelPosition=right;points=[];portConstraint=eastwest;strokeColor=inherit;" vertex="1" parent="ljXTEB833THAAeLaWiwh-1">
          <mxGeometry y="190" width="190" height="8" as="geometry" />
        </mxCell>
        <mxCell id="ljXTEB833THAAeLaWiwh-4" value="+ Usuario()&amp;nbsp;&lt;div&gt;+ Usuario(string, string, string, string, string, bool, MaquinaExpendedora, string)&lt;br&gt;&lt;div&gt;+ GetRealNombre(): string&lt;div&gt;+ Login(string, string): bool&lt;/div&gt;&lt;div&gt;+ Menu(bool): void&lt;/div&gt;&lt;/div&gt;&lt;/div&gt;" style="text;strokeColor=none;fillColor=none;align=left;verticalAlign=top;spacingLeft=4;spacingRight=4;overflow=hidden;rotatable=0;points=[[0,0.5],[1,0.5]];portConstraint=eastwest;whiteSpace=wrap;html=1;" vertex="1" parent="ljXTEB833THAAeLaWiwh-1">
          <mxGeometry y="198" width="190" height="112" as="geometry" />
        </mxCell>
        <mxCell id="ljXTEB833THAAeLaWiwh-5" value="Producto" style="swimlane;fontStyle=1;align=center;verticalAlign=top;childLayout=stackLayout;horizontal=1;startSize=26;horizontalStack=0;resizeParent=1;resizeParentMax=0;resizeLast=0;collapsible=1;marginBottom=0;whiteSpace=wrap;html=1;" vertex="1" parent="1">
          <mxGeometry x="990" y="30" width="160" height="310" as="geometry" />
        </mxCell>
        <mxCell id="ljXTEB833THAAeLaWiwh-6" value="+ Nombre: string&lt;div&gt;+ Unidades: int&lt;/div&gt;&lt;div&gt;+ PrecioUnitario: double&lt;/div&gt;&lt;div&gt;+ Descripcion: string&amp;nbsp;&lt;/div&gt;&lt;div&gt;+ Id: int&lt;/div&gt;&lt;div&gt;+ Vendido: bool&lt;/div&gt;" style="text;strokeColor=none;fillColor=none;align=left;verticalAlign=top;spacingLeft=4;spacingRight=4;overflow=hidden;rotatable=0;points=[[0,0.5],[1,0.5]];portConstraint=eastwest;whiteSpace=wrap;html=1;" vertex="1" parent="ljXTEB833THAAeLaWiwh-5">
          <mxGeometry y="26" width="160" height="104" as="geometry" />
        </mxCell>
        <mxCell id="ljXTEB833THAAeLaWiwh-7" value="" style="line;strokeWidth=1;fillColor=none;align=left;verticalAlign=middle;spacingTop=-1;spacingLeft=3;spacingRight=3;rotatable=0;labelPosition=right;points=[];portConstraint=eastwest;strokeColor=inherit;" vertex="1" parent="ljXTEB833THAAeLaWiwh-5">
          <mxGeometry y="130" width="160" height="10" as="geometry" />
        </mxCell>
        <mxCell id="ljXTEB833THAAeLaWiwh-8" value="+ Producto()&lt;div&gt;+ Producto(string, int, double, string, int)&lt;/div&gt;&lt;div&gt;+&amp;nbsp;&lt;span style=&quot;background-color: initial;&quot;&gt;Producto(string, int, double, string, int, bool, bool)&lt;/span&gt;&lt;/div&gt;&lt;div&gt;&lt;span style=&quot;background-color: initial;&quot;&gt;+ MostrarInformacion(): void&lt;/span&gt;&lt;/div&gt;&lt;div&gt;&lt;span style=&quot;background-color: initial;&quot;&gt;+ EstaVendido(): bool&amp;nbsp;&lt;/span&gt;&lt;/div&gt;&lt;div&gt;&lt;span style=&quot;background-color: initial;&quot;&gt;+ MarcarComoVendido(): void&lt;/span&gt;&lt;/div&gt;" style="text;strokeColor=none;fillColor=none;align=left;verticalAlign=top;spacingLeft=4;spacingRight=4;overflow=hidden;rotatable=0;points=[[0,0.5],[1,0.5]];portConstraint=eastwest;whiteSpace=wrap;html=1;" vertex="1" parent="ljXTEB833THAAeLaWiwh-5">
          <mxGeometry y="140" width="160" height="170" as="geometry" />
        </mxCell>
        <mxCell id="ljXTEB833THAAeLaWiwh-9" value="MaquinaExpendedora" style="swimlane;fontStyle=1;align=center;verticalAlign=top;childLayout=stackLayout;horizontal=1;startSize=26;horizontalStack=0;resizeParent=1;resizeParentMax=0;resizeLast=0;collapsible=1;marginBottom=0;whiteSpace=wrap;html=1;" vertex="1" parent="1">
          <mxGeometry x="70" y="60" width="190" height="154" as="geometry" />
        </mxCell>
        <mxCell id="ljXTEB833THAAeLaWiwh-10" value="+ Listaproductos: List&amp;lt;Producto&amp;gt;&lt;div&gt;+ Maquina: MaquinaExpendedora&lt;/div&gt;&lt;div&gt;+ Usuario: Usuario&lt;/div&gt;" style="text;strokeColor=none;fillColor=none;align=left;verticalAlign=top;spacingLeft=4;spacingRight=4;overflow=hidden;rotatable=0;points=[[0,0.5],[1,0.5]];portConstraint=eastwest;whiteSpace=wrap;html=1;" vertex="1" parent="ljXTEB833THAAeLaWiwh-9">
          <mxGeometry y="26" width="190" height="94" as="geometry" />
        </mxCell>
        <mxCell id="ljXTEB833THAAeLaWiwh-11" value="" style="line;strokeWidth=1;fillColor=none;align=left;verticalAlign=middle;spacingTop=-1;spacingLeft=3;spacingRight=3;rotatable=0;labelPosition=right;points=[];portConstraint=eastwest;strokeColor=inherit;" vertex="1" parent="ljXTEB833THAAeLaWiwh-9">
          <mxGeometry y="120" width="190" height="8" as="geometry" />
        </mxCell>
        <mxCell id="ljXTEB833THAAeLaWiwh-12" value="+ method(type): type" style="text;strokeColor=none;fillColor=none;align=left;verticalAlign=top;spacingLeft=4;spacingRight=4;overflow=hidden;rotatable=0;points=[[0,0.5],[1,0.5]];portConstraint=eastwest;whiteSpace=wrap;html=1;" vertex="1" parent="ljXTEB833THAAeLaWiwh-9">
          <mxGeometry y="128" width="190" height="26" as="geometry" />
        </mxCell>
        <mxCell id="ljXTEB833THAAeLaWiwh-14" value="ProductosElectronicos" style="swimlane;fontStyle=1;align=center;verticalAlign=top;childLayout=stackLayout;horizontal=1;startSize=26;horizontalStack=0;resizeParent=1;resizeParentMax=0;resizeLast=0;collapsible=1;marginBottom=0;whiteSpace=wrap;html=1;" vertex="1" parent="1">
          <mxGeometry x="1290" y="362" width="190" height="170" as="geometry" />
        </mxCell>
        <mxCell id="ljXTEB833THAAeLaWiwh-15" value="+ TipoMaterial: string&lt;div&gt;+ TieneBateria: bool&lt;/div&gt;&lt;div&gt;+ Precargado: bool&lt;/div&gt;" style="text;strokeColor=none;fillColor=none;align=left;verticalAlign=top;spacingLeft=4;spacingRight=4;overflow=hidden;rotatable=0;points=[[0,0.5],[1,0.5]];portConstraint=eastwest;whiteSpace=wrap;html=1;" vertex="1" parent="ljXTEB833THAAeLaWiwh-14">
          <mxGeometry y="26" width="190" height="64" as="geometry" />
        </mxCell>
        <mxCell id="ljXTEB833THAAeLaWiwh-16" value="" style="line;strokeWidth=1;fillColor=none;align=left;verticalAlign=middle;spacingTop=-1;spacingLeft=3;spacingRight=3;rotatable=0;labelPosition=right;points=[];portConstraint=eastwest;strokeColor=inherit;" vertex="1" parent="ljXTEB833THAAeLaWiwh-14">
          <mxGeometry y="90" width="190" height="8" as="geometry" />
        </mxCell>
        <mxCell id="ljXTEB833THAAeLaWiwh-17" value="+ ProductosElectronicos()&lt;div&gt;+ ProductosElectronicos(string, bool, bool)&lt;/div&gt;&lt;div&gt;+ MostrarInformacion(): void&lt;/div&gt;" style="text;strokeColor=none;fillColor=none;align=left;verticalAlign=top;spacingLeft=4;spacingRight=4;overflow=hidden;rotatable=0;points=[[0,0.5],[1,0.5]];portConstraint=eastwest;whiteSpace=wrap;html=1;" vertex="1" parent="ljXTEB833THAAeLaWiwh-14">
          <mxGeometry y="98" width="190" height="72" as="geometry" />
        </mxCell>
        <mxCell id="ljXTEB833THAAeLaWiwh-18" value="ProductosAlimenticios" style="swimlane;fontStyle=1;align=center;verticalAlign=top;childLayout=stackLayout;horizontal=1;startSize=26;horizontalStack=0;resizeParent=1;resizeParentMax=0;resizeLast=0;collapsible=1;marginBottom=0;whiteSpace=wrap;html=1;" vertex="1" parent="1">
          <mxGeometry x="750" y="386" width="190" height="170" as="geometry" />
        </mxCell>
        <mxCell id="ljXTEB833THAAeLaWiwh-19" value="+ InformacionNutricional: string" style="text;strokeColor=none;fillColor=none;align=left;verticalAlign=top;spacingLeft=4;spacingRight=4;overflow=hidden;rotatable=0;points=[[0,0.5],[1,0.5]];portConstraint=eastwest;whiteSpace=wrap;html=1;" vertex="1" parent="ljXTEB833THAAeLaWiwh-18">
          <mxGeometry y="26" width="190" height="44" as="geometry" />
        </mxCell>
        <mxCell id="ljXTEB833THAAeLaWiwh-20" value="" style="line;strokeWidth=1;fillColor=none;align=left;verticalAlign=middle;spacingTop=-1;spacingLeft=3;spacingRight=3;rotatable=0;labelPosition=right;points=[];portConstraint=eastwest;strokeColor=inherit;" vertex="1" parent="ljXTEB833THAAeLaWiwh-18">
          <mxGeometry y="70" width="190" height="8" as="geometry" />
        </mxCell>
        <mxCell id="ljXTEB833THAAeLaWiwh-21" value="+ ProductosAlimenticios()&lt;div&gt;+ ProductosAlimenticios(string)&lt;/div&gt;&lt;div&gt;+ MostrarInformacion(): void&lt;/div&gt;" style="text;strokeColor=none;fillColor=none;align=left;verticalAlign=top;spacingLeft=4;spacingRight=4;overflow=hidden;rotatable=0;points=[[0,0.5],[1,0.5]];portConstraint=eastwest;whiteSpace=wrap;html=1;" vertex="1" parent="ljXTEB833THAAeLaWiwh-18">
          <mxGeometry y="78" width="190" height="92" as="geometry" />
        </mxCell>
        <mxCell id="ljXTEB833THAAeLaWiwh-22" value="MaterialesPreciosos" style="swimlane;fontStyle=1;align=center;verticalAlign=top;childLayout=stackLayout;horizontal=1;startSize=26;horizontalStack=0;resizeParent=1;resizeParentMax=0;resizeLast=0;collapsible=1;marginBottom=0;whiteSpace=wrap;html=1;" vertex="1" parent="1">
          <mxGeometry x="1030" y="399" width="170" height="180" as="geometry" />
        </mxCell>
        <mxCell id="ljXTEB833THAAeLaWiwh-23" value="+ TipoMaterial: string&lt;div&gt;+ Peso: double&lt;/div&gt;" style="text;strokeColor=none;fillColor=none;align=left;verticalAlign=top;spacingLeft=4;spacingRight=4;overflow=hidden;rotatable=0;points=[[0,0.5],[1,0.5]];portConstraint=eastwest;whiteSpace=wrap;html=1;" vertex="1" parent="ljXTEB833THAAeLaWiwh-22">
          <mxGeometry y="26" width="170" height="44" as="geometry" />
        </mxCell>
        <mxCell id="ljXTEB833THAAeLaWiwh-24" value="" style="line;strokeWidth=1;fillColor=none;align=left;verticalAlign=middle;spacingTop=-1;spacingLeft=3;spacingRight=3;rotatable=0;labelPosition=right;points=[];portConstraint=eastwest;strokeColor=inherit;" vertex="1" parent="ljXTEB833THAAeLaWiwh-22">
          <mxGeometry y="70" width="170" height="8" as="geometry" />
        </mxCell>
        <mxCell id="ljXTEB833THAAeLaWiwh-25" value="+ MaterialesPreciosos()&lt;div&gt;+ MaterialesPreciosos(string, double)&amp;nbsp;&lt;/div&gt;&lt;div&gt;+ MostrarInformacion(): void&lt;/div&gt;" style="text;strokeColor=none;fillColor=none;align=left;verticalAlign=top;spacingLeft=4;spacingRight=4;overflow=hidden;rotatable=0;points=[[0,0.5],[1,0.5]];portConstraint=eastwest;whiteSpace=wrap;html=1;" vertex="1" parent="ljXTEB833THAAeLaWiwh-22">
          <mxGeometry y="78" width="170" height="102" as="geometry" />
        </mxCell>
        <mxCell id="ljXTEB833THAAeLaWiwh-27" value="GestorCompra" style="swimlane;fontStyle=1;align=center;verticalAlign=top;childLayout=stackLayout;horizontal=1;startSize=26;horizontalStack=0;resizeParent=1;resizeParentMax=0;resizeLast=0;collapsible=1;marginBottom=0;whiteSpace=wrap;html=1;" vertex="1" parent="1">
          <mxGeometry x="630" y="50" width="250" height="230" as="geometry" />
        </mxCell>
        <mxCell id="ljXTEB833THAAeLaWiwh-28" value="- Listaproductos: List&amp;lt;Producto&amp;gt;&amp;nbsp;&lt;div&gt;&lt;br&gt;&lt;/div&gt;" style="text;strokeColor=none;fillColor=none;align=left;verticalAlign=top;spacingLeft=4;spacingRight=4;overflow=hidden;rotatable=0;points=[[0,0.5],[1,0.5]];portConstraint=eastwest;whiteSpace=wrap;html=1;" vertex="1" parent="ljXTEB833THAAeLaWiwh-27">
          <mxGeometry y="26" width="250" height="34" as="geometry" />
        </mxCell>
        <mxCell id="ljXTEB833THAAeLaWiwh-29" value="" style="line;strokeWidth=1;fillColor=none;align=left;verticalAlign=middle;spacingTop=-1;spacingLeft=3;spacingRight=3;rotatable=0;labelPosition=right;points=[];portConstraint=eastwest;strokeColor=inherit;" vertex="1" parent="ljXTEB833THAAeLaWiwh-27">
          <mxGeometry y="60" width="250" height="8" as="geometry" />
        </mxCell>
        <mxCell id="ljXTEB833THAAeLaWiwh-30" value="+ GestorCompra()&lt;div&gt;+ IniciarCompra(double, int): void&lt;/div&gt;&lt;div&gt;- SeleccionarMetodoPago(double, int): void&lt;/div&gt;&lt;div&gt;+ PagoEfectivo(double, int): void&lt;/div&gt;&lt;div&gt;- PedirCantidadPagada(double): double&lt;/div&gt;&lt;div&gt;- CalcularCambio(double, double): double&amp;nbsp;&lt;/div&gt;&lt;div&gt;- MostrarCambio(double): void&amp;nbsp;&lt;/div&gt;&lt;div&gt;+ PagoTarjet(double, int): void&amp;nbsp;&lt;/div&gt;&lt;div&gt;- ProcesarPago(double, int): void&lt;/div&gt;&lt;div&gt;- RegistrarVenta(Producto, double): void&lt;/div&gt;" style="text;strokeColor=none;fillColor=none;align=left;verticalAlign=top;spacingLeft=4;spacingRight=4;overflow=hidden;rotatable=0;points=[[0,0.5],[1,0.5]];portConstraint=eastwest;whiteSpace=wrap;html=1;" vertex="1" parent="ljXTEB833THAAeLaWiwh-27">
          <mxGeometry y="68" width="250" height="162" as="geometry" />
        </mxCell>
        <mxCell id="ljXTEB833THAAeLaWiwh-31" value="&lt;p style=&quot;margin:0px;margin-top:4px;text-align:center;&quot;&gt;&lt;i&gt;&amp;lt;&amp;lt;Interface&amp;gt;&amp;gt;&lt;/i&gt;&lt;br&gt;&lt;b&gt;InterfaceUsuario&lt;/b&gt;&lt;/p&gt;&lt;hr size=&quot;1&quot; style=&quot;border-style:solid;&quot;&gt;&lt;p style=&quot;margin:0px;margin-left:4px;&quot;&gt;- Maquina: MaquinaExpendedora&lt;br&gt;- Usuario: Usuario&lt;/p&gt;&lt;p style=&quot;margin:0px;margin-left:4px;&quot;&gt;+ Listaproductos: List&amp;lt;Producto&amp;gt;&lt;/p&gt;&lt;p style=&quot;margin:0px;margin-left:4px;&quot;&gt;- GestorCompra: GestorCompra&lt;/p&gt;&lt;p style=&quot;margin:0px;margin-left:4px;&quot;&gt;- ListaUsuariosAdmin: List&amp;lt;Usuario&amp;gt;&lt;/p&gt;&lt;p style=&quot;margin:0px;margin-left:4px;&quot;&gt;- ListaUsuariosCliente: List&amp;lt;Usuario&amp;gt;&lt;/p&gt;&lt;p style=&quot;margin:0px;margin-left:4px;&quot;&gt;&lt;br&gt;&lt;/p&gt;&lt;hr size=&quot;1&quot; style=&quot;border-style:solid;&quot;&gt;&lt;p style=&quot;margin:0px;margin-left:4px;&quot;&gt;+ InterfazUsuario()&lt;br&gt;+ InterfazUsuario(MaquinaExpendedora, Usuario)&lt;/p&gt;&lt;p style=&quot;margin:0px;margin-left:4px;&quot;&gt;+ InterfazUsuario(MaquinaExpendedora, Usuario, List&amp;lt;Producto&amp;gt;)&lt;/p&gt;&lt;p style=&quot;margin:0px;margin-left:4px;&quot;&gt;+ ElegirProducto: Producto&lt;/p&gt;&lt;p style=&quot;margin:0px;margin-left:4px;&quot;&gt;+ MostrarMenuPrincipal(): void&lt;/p&gt;&lt;p style=&quot;margin:0px;margin-left:4px;&quot;&gt;+ MostrarProducto(bool): void&lt;/p&gt;&lt;p style=&quot;margin:0px;margin-left:4px;&quot;&gt;+ ComprarProducto(int): void&lt;/p&gt;&lt;p style=&quot;margin:0px;margin-left:4px;&quot;&gt;+ PagoEfectivo(double, int): void&lt;/p&gt;&lt;p style=&quot;margin:0px;margin-left:4px;&quot;&gt;+ PagoTarjeta(double, int): void&lt;/p&gt;&lt;p style=&quot;margin:0px;margin-left:4px;&quot;&gt;+ CargaIndividualProductos(): void&lt;/p&gt;&lt;p style=&quot;margin:0px;margin-left:4px;&quot;&gt;+ CargarTodosLosProductos(): void&lt;/p&gt;&lt;p style=&quot;margin:0px;margin-left:4px;&quot;&gt;+ Salir(): void&lt;/p&gt;&lt;p style=&quot;margin:0px;margin-left:4px;&quot;&gt;+ Salir(bool): void&lt;/p&gt;" style="verticalAlign=top;align=left;overflow=fill;html=1;whiteSpace=wrap;" vertex="1" parent="1">
          <mxGeometry x="400" y="399" width="240" height="401" as="geometry" />
        </mxCell>
        <mxCell id="ljXTEB833THAAeLaWiwh-39" value="Program" style="swimlane;fontStyle=1;align=center;verticalAlign=top;childLayout=stackLayout;horizontal=1;startSize=26;horizontalStack=0;resizeParent=1;resizeParentMax=0;resizeLast=0;collapsible=1;marginBottom=0;whiteSpace=wrap;html=1;" vertex="1" parent="1">
          <mxGeometry x="70" y="260" width="160" height="86" as="geometry" />
        </mxCell>
        <mxCell id="ljXTEB833THAAeLaWiwh-40" value="+ field: type" style="text;strokeColor=none;fillColor=none;align=left;verticalAlign=top;spacingLeft=4;spacingRight=4;overflow=hidden;rotatable=0;points=[[0,0.5],[1,0.5]];portConstraint=eastwest;whiteSpace=wrap;html=1;" vertex="1" parent="ljXTEB833THAAeLaWiwh-39">
          <mxGeometry y="26" width="160" height="26" as="geometry" />
        </mxCell>
        <mxCell id="ljXTEB833THAAeLaWiwh-41" value="" style="line;strokeWidth=1;fillColor=none;align=left;verticalAlign=middle;spacingTop=-1;spacingLeft=3;spacingRight=3;rotatable=0;labelPosition=right;points=[];portConstraint=eastwest;strokeColor=inherit;" vertex="1" parent="ljXTEB833THAAeLaWiwh-39">
          <mxGeometry y="52" width="160" height="8" as="geometry" />
        </mxCell>
        <mxCell id="ljXTEB833THAAeLaWiwh-42" value="+ method(type): type" style="text;strokeColor=none;fillColor=none;align=left;verticalAlign=top;spacingLeft=4;spacingRight=4;overflow=hidden;rotatable=0;points=[[0,0.5],[1,0.5]];portConstraint=eastwest;whiteSpace=wrap;html=1;" vertex="1" parent="ljXTEB833THAAeLaWiwh-39">
          <mxGeometry y="60" width="160" height="26" as="geometry" />
        </mxCell>
      </root>
    </mxGraphModel>
  </diagram>
</mxfile>
